<svg width="253" height="270" xmlns="http://www.w3.org/2000/svg" xmlns:xlink="http://www.w3.org/1999/xlink" overflow="hidden"><defs><clipPath id="clip0"><rect x="52" y="148" width="253" height="270"/></clipPath></defs><g clip-path="url(#clip0)" transform="translate(-52 -148)"><path d="M212.467 151.167 215.137 151.167 217.787 151.188 220.437 151.209 223.067 151.251 225.696 151.293 228.262 151.355 230.808 151.48 233.333 151.626 235.816 151.814 238.257 152.044 240.657 152.315 242.973 152.628 245.247 153.025 247.459 153.484 249.608 154.005 251.695 154.589 253.677 155.236 255.618 155.967 257.496 156.76 259.269 157.657 260.98 158.617 262.608 159.66 264.131 160.766 265.592 161.976 266.969 163.27 268.262 164.647 269.473 166.108 270.599 167.652 271.643 169.279 272.582 170.969 273.479 172.743 274.272 174.621 275.002 176.562 275.67 178.565 276.254 180.651 276.755 182.78 277.214 184.991 277.611 187.266 277.944 189.603 278.216 192.002 278.445 194.444 278.612 196.906 278.758 199.431 278.883 201.976 278.967 204.564 279.009 207.193 279.029 209.801 279.05 212.451 279.071 215.101 279.071 217.772" fill-rule="evenodd"/><path d="M52 217.486 118.486 151 212.514 151 279 217.486 279 311.514 212.514 378 118.486 378 52 311.514Z" fill-rule="evenodd"/><path d="M0 29.9812 1.88858 28.0926 3.77717 26.2336 5.66575 24.3745 7.55434 22.5449 9.44292 20.7154 11.302 18.9448 13.1906 17.2333 15.0792 15.5513 16.9678 13.9283 18.8563 12.3643 20.7449 10.8593 22.604 9.4429 24.4926 8.11499 26.3812 6.87561 28.2698 5.72476 30.1583 4.66243 32.0174 3.71814 33.906 2.86238 35.7946 2.09514 37.6832 1.47545 39.5718 0.94429 41.4603 0.531163 43.3194 0.236072 45.208 0.0590181 47.0966 0 48.9852 0.0590181 50.8738 0.236072 52.7623 0.531163 54.6509 0.94429 56.51 1.47545 58.3986 2.09514 60.2872 2.86238 62.1758 3.71814 64.0643 4.66243 65.9529 5.72476 67.812 6.87561 69.7006 8.11499 71.5892 9.4429 73.4778 10.8593 75.3663 12.3643 77.2549 13.9283 79.114 15.5513 81.0026 17.2333 82.8912 18.9448 84.7798 20.7154 86.6683 22.5449 88.5274 24.3745 90.416 26.2336 92.3046 28.0926 94.1932 29.9812" fill-rule="evenodd" transform="matrix(-0.707107 0.707107 0.707107 0.707107 97.7158 129.967)"/><path d="M118.916 377.999 116.245 377.999 113.595 377.978 110.945 377.958 108.316 377.916 105.687 377.874 103.12 377.811 100.575 377.686 98.0497 377.54 95.5667 377.352 93.1253 377.123 90.7257 376.852 88.4096 376.539 86.1352 376.142 83.9234 375.683 81.7742 375.161 79.6876 374.577 77.7053 373.93 75.7647 373.2 73.8868 372.407 72.1132 371.51 70.4022 370.55 68.7746 369.507 67.2514 368.401 65.7908 367.191 64.4136 365.897 63.1199 364.52 61.9097 363.059 60.7829 361.515 59.7396 359.887 58.8006 358.197 57.9034 356.424 57.1104 354.546 56.3801 352.605 55.7124 350.602 55.1282 348.515 54.6274 346.387 54.1683 344.175 53.7719 341.901 53.438 339.564 53.1667 337.164 52.9372 334.723 52.7703 332.261 52.6242 329.736 52.499 327.19 52.4155 324.603 52.3738 321.974 52.3529 319.366 52.3321 316.716 52.3112 314.066 52.3112 311.395" fill-rule="evenodd"/><path d="M0 29.9812 1.88858 28.0926 3.77717 26.2336 5.66575 24.3745 7.55434 22.5449 9.44292 20.7154 11.302 18.9448 13.1906 17.2333 15.0792 15.5513 16.9678 13.9283 18.8563 12.3643 20.7449 10.8593 22.604 9.4429 24.4926 8.11499 26.3812 6.87561 28.2698 5.72476 30.1583 4.66243 32.0174 3.71814 33.906 2.86238 35.7946 2.09514 37.6832 1.47545 39.5718 0.94429 41.4603 0.531163 43.3194 0.236072 45.208 0.0590181 47.0966 0 48.9852 0.0590181 50.8738 0.236072 52.7623 0.531163 54.6509 0.94429 56.51 1.47545 58.3986 2.09514 60.2872 2.86238 62.1758 3.71814 64.0643 4.66243 65.9529 5.72476 67.812 6.87561 69.7006 8.11499 71.5892 9.4429 73.4778 10.8593 75.3663 12.3643 77.2549 13.9283 79.114 15.5513 81.0026 17.2333 82.8912 18.9448 84.7798 20.7154 86.6683 22.5449 88.5274 24.3745 90.416 26.2336 92.3046 28.0926 94.1932 29.9812" fill-rule="evenodd" transform="matrix(0.707107 -0.707107 -0.707107 -0.707107 233.666 399.038)"/><path d="M147.164 170.5 112.391 184.891 85.989 211.434 71.5001 246.292 71.5001 283.708 85.989 318.566 112.391 345.109 147.164 359.5 184.836 359.5 219.609 345.109 246.011 318.566 260.5 283.708 260.5 246.292 246.011 211.434 219.609 184.891 184.836 170.5 147.164 170.5Z" stroke="#262626" stroke-linejoin="round" stroke-miterlimit="10" fill="none" fill-rule="evenodd"/><path d="M0 0 6 65" stroke="#262626" stroke-width="0.666667" stroke-linejoin="round" stroke-miterlimit="10" fill="none" fill-rule="evenodd" transform="matrix(-1 0 0 1 185.5 170.5)"/><path d="M179.5 235.5 147.5 170.5" stroke="#262626" stroke-width="0.666667" stroke-linejoin="round" stroke-miterlimit="10" fill="none" fill-rule="evenodd"/><path d="M0 0 24 84" stroke="#262626" stroke-width="0.666667" stroke-linejoin="round" stroke-miterlimit="10" fill="none" fill-rule="evenodd" transform="matrix(-1 0 0 1 147.5 170.5)"/><path d="M123.5 254.5 112.5 184.5" stroke="#262626" stroke-width="0.666667" stroke-linejoin="round" stroke-miterlimit="10" fill="none" fill-rule="evenodd"/><path d="M0 0 41 62" stroke="#262626" stroke-width="0.666667" stroke-linejoin="round" stroke-miterlimit="10" fill="none" fill-rule="evenodd" transform="matrix(-1 0 0 1 112.5 184.5)"/><path d="M71.5001 246.5 123.5 254.5" stroke="#262626" stroke-width="0.666667" stroke-linejoin="round" stroke-miterlimit="10" fill="none" fill-rule="evenodd"/><path d="M0 0 52 29" stroke="#262626" stroke-width="0.666667" stroke-linejoin="round" stroke-miterlimit="10" fill="none" fill-rule="evenodd" transform="matrix(-1 0 0 1 123.5 254.5)"/><path d="M0 0 95 18" stroke="#262626" stroke-width="0.666667" stroke-linejoin="round" stroke-miterlimit="10" fill="none" fill-rule="evenodd" transform="matrix(1 0 0 -1 71.5001 283.5)"/><path d="M0 0 80 53" stroke="#262626" stroke-width="0.666667" stroke-linejoin="round" stroke-miterlimit="10" fill="none" fill-rule="evenodd" transform="matrix(-1 0 0 1 166.5 265.5)"/><path d="M86.5001 318.5 140.5 318.5" stroke="#262626" stroke-width="0.666667" stroke-linejoin="round" stroke-miterlimit="10" fill="none" fill-rule="evenodd"/><path d="M0 0 28 27" stroke="#262626" stroke-width="0.666667" stroke-linejoin="round" stroke-miterlimit="10" fill="none" fill-rule="evenodd" transform="matrix(-1 0 0 1 140.5 318.5)"/><path d="M112.5 345.5 185.5 359.5" stroke="#262626" stroke-width="0.666667" stroke-linejoin="round" stroke-miterlimit="10" fill="none" fill-rule="evenodd"/><path d="M185.5 359.5 140.5 318.5" stroke="#262626" stroke-width="0.666667" stroke-linejoin="round" stroke-miterlimit="10" fill="none" fill-rule="evenodd"/><path d="M0 0 26 53" stroke="#262626" stroke-width="0.666667" stroke-linejoin="round" stroke-miterlimit="10" fill="none" fill-rule="evenodd" transform="matrix(1 0 0 -1 140.5 318.5)"/><path d="M166.5 265.5 185.5 359.5" stroke="#262626" stroke-width="0.666667" stroke-linejoin="round" stroke-miterlimit="10" fill="none" fill-rule="evenodd"/><path d="M0 0 13 61" stroke="#262626" stroke-width="0.666667" stroke-linejoin="round" stroke-miterlimit="10" fill="none" fill-rule="evenodd" transform="matrix(1 0 0 -1 185.5 359.5)"/><path d="M198.5 298.5 166.5 265.5" stroke="#262626" stroke-width="0.666667" stroke-linejoin="round" stroke-miterlimit="10" fill="none" fill-rule="evenodd"/><path d="M166.5 265.5 123.5 254.5" stroke="#262626" stroke-width="0.666667" stroke-linejoin="round" stroke-miterlimit="10" fill="none" fill-rule="evenodd"/><path d="M0 0 56 19" stroke="#262626" stroke-width="0.666667" stroke-linejoin="round" stroke-miterlimit="10" fill="none" fill-rule="evenodd" transform="matrix(1 0 0 -1 123.5 254.5)"/><path d="M179.5 235.5 198.5 298.5" stroke="#262626" stroke-width="0.666667" stroke-linejoin="round" stroke-miterlimit="10" fill="none" fill-rule="evenodd"/><path d="M198.5 298.5 219.5 345.5" stroke="#262626" stroke-width="0.666667" stroke-linejoin="round" stroke-miterlimit="10" fill="none" fill-rule="evenodd"/><path d="M0 0 41 62" stroke="#262626" stroke-width="0.666667" stroke-linejoin="round" stroke-miterlimit="10" fill="none" fill-rule="evenodd" transform="matrix(1 0 0 -1 219.5 345.5)"/><path d="M0 0 62 15" stroke="#262626" stroke-width="0.666667" stroke-linejoin="round" stroke-miterlimit="10" fill="none" fill-rule="evenodd" transform="matrix(-1 0 0 1 260.5 283.5)"/><path d="M0 0 62 52" stroke="#262626" stroke-width="0.666667" stroke-linejoin="round" stroke-miterlimit="10" fill="none" fill-rule="evenodd" transform="matrix(1 0 0 -1 198.5 298.5)"/><path d="M260.5 246.5 210.5 238.5" stroke="#262626" stroke-width="0.666667" stroke-linejoin="round" stroke-miterlimit="10" fill="none" fill-rule="evenodd"/><path d="M0 0 9 54" stroke="#262626" stroke-width="0.666667" stroke-linejoin="round" stroke-miterlimit="10" fill="none" fill-rule="evenodd" transform="matrix(1 0 0 -1 210.5 238.5)"/><path d="M0 0 40 51" stroke="#262626" stroke-width="0.666667" stroke-linejoin="round" stroke-miterlimit="10" fill="none" fill-rule="evenodd" transform="matrix(-1 0 0 1 219.5 184.5)"/><path d="M179.5 235.5 210.5 238.5" stroke="#262626" stroke-width="0.666667" stroke-linejoin="round" stroke-miterlimit="10" fill="none" fill-rule="evenodd"/><path d="M0 0 36 27" stroke="#262626" stroke-width="0.666667" stroke-linejoin="round" stroke-miterlimit="10" fill="none" fill-rule="evenodd" transform="matrix(1 0 0 -1 210.5 238.5)"/><path d="M0 0 11 59" stroke="#262626" stroke-width="0.666667" stroke-linejoin="round" stroke-miterlimit="10" fill="none" fill-rule="evenodd" transform="matrix(-1 0 0 1 210.5 238.5)"/><text fill="#FFFFFF" font-family="STXingkai,STXingkai_MSFontService,sans-serif" font-weight="400" font-size="80" transform="translate(104.108 298)">N<tspan font-size="128" x="45.8333" y="0">C</tspan></text></g></svg>